<?xml version="1.0" encoding="UTF-8"?><svg id="Layer_1" xmlns="http://www.w3.org/2000/svg" viewBox="0 0 310.64 139.93"><defs><style>.cls-1{fill:#050505;fill-rule:evenodd;}</style></defs><path class="cls-1" d="m236.57,110.92c3.94-2.12,8.86-1.81,10.74,2.79,3.72-1.92,7.09,5.64,5.42,4.42-.87-.63-3.18-4.62-5.86-2.99-2.98-5.9-10.31-4.22-10.31-4.22h0Zm-170.63-26.95l83.56-12.82,45.1-55.39-58.5,13.54v4.74l-6.67,9.54v-25.68l-7.63,2.74v20.84l-2.68-8.24-20.9,4.84-32.29,45.9h0Zm170.03,6.34c2.99,0,5.69,1.21,7.65,3.17,1.88,1.88,3.07,4.44,3.16,7.28.55-.48,1.16-.91,1.81-1.26,1.44-.79,3.09-1.23,4.83-1.23,2.79,0,5.32,1.13,7.14,2.96,1.83,1.83,2.96,4.35,2.96,7.14,0,.27-.01.54-.04.83,1.58.94,2.93,2.24,3.93,3.78,1.22,1.87,1.92,4.1,1.92,6.49,0,2.69-.89,5.18-2.4,7.18,22.11,3.55,37.71,8.14,43.69,13.28-27.98-6.21-87.01-10.5-155.32-10.5S27.98,133.71,0,139.93c4.91-4.22,16.31-8.07,32.47-11.28-.02-4.19.96-9.53,5.61-11.75,8.19-3.92,13.75-.22,13.75-.22,0,0-.83-3.32.59-5.34,1.42-2.02,4.98-.95,4.98-.95,0,0-1.31-4.51,1.66-7.12,2.97-2.61,7-1.54,7-1.54,0,0-.71-2.73.83-5.34,1.54-2.61,8.19-1.9,8.19-1.9l2.51,28.02.32-.03v-34.19l70.74-10.45v41.41c2.2-.01,4.42-.02,6.64-.02,27.71,0,53.75,1.15,76.39,3.16v-41.31h.9l.16,9.73c1.02-.32,2.1-.49,3.22-.49h0Zm27.92,35.86c4.44-4.47,3.75-15.17-4.43-14.94l.32-1.42c.05-.21.09-.45.12-.72.02-.22.04-.46.04-.72.79-7.43-9.41-10.97-13.3-2.44-.79-.35-.57-.12-1.2-.6.42-5.53-4.35-11.43-9.47-11.43-1.13,0-2.2.26-3.16.72l.44,27.9c11.12,1.02,21.4,2.24,30.63,3.65h0Zm-138.38-22.05l12.02-1.04v16.29c.77-.01,1.54-.03,2.31-.04v-37.56l-16.6,2.68v35.28c.76-.03,1.52-.05,2.28-.07v-15.55h0Zm1.62-89.23s.61-5.82-4.26-8.07c-8.48-3.93-22.52.82-32.72-1.25-3.86-.78-7.17-2-9.43-5.57.43,5.56,3.98,7.71,8.88,8.94,8.54,2.15,21.17-.1,28.52.73,7.36.83,9,5.22,9,5.22h0ZM38.53,121.17c1.81-4.04,9.29-4.52,12.17-2.43l-1.01,1.48c-3.56-1.51-8.05-1.68-11.16.95h0Zm21.1-10.57c-1.85-3.43,3.02-9.59,5.92-5.83-3.9.12-6.17,3.34-5.92,5.83h0Zm132.91-60.97c3.27.19,6.29,1.39,8.72,3.3l-8.72,8.68v-11.98h0Zm9.98,4.39c2.56,2.48,4.28,5.83,4.67,9.56h-14.28l9.61-9.56h0Zm-11.96,9.56h-14.43c.42-4,2.38-7.57,5.26-10.1l9.2,10.07-.03.03h0Zm-7.86-11.13c2.34-1.65,5.16-2.68,8.19-2.83v11.8l-8.19-8.96h0Zm15.96,27.62h18.04v5.78h-18.04v-5.78h0Zm18.04,7.96v20.53h-7.84v-20.53h7.84Zm-10.02,20.53h-8.03v-20.53h8.03v20.53h0Zm-41.74-28.49h18.04v5.78h-18.04v-5.78h0Zm18.04,7.96v20.53h-7.84v-20.53h7.84Zm-10.02,20.53h-8.03v-20.53h8.03v20.53h0Zm15.35-78.67l7.12-9.26,41.54,47.48-5.61,1.93-36.17-42.29-6.88,2.14h0Z"/></svg>